<?xml version="1.0" standalone="no"?>
<!DOCTYPE svg PUBLIC "-//W3C//DTD SVG 20010904//EN"
 "http://www.w3.org/TR/2001/REC-SVG-20010904/DTD/svg10.dtd">
<svg version="1.0" xmlns="http://www.w3.org/2000/svg"
 width="379.000000pt" height="380.000000pt" viewBox="0 0 379.000000 380.000000"
 preserveAspectRatio="xMidYMid meet">

<g transform="translate(0.000000,380.000000) scale(0.100000,-0.100000)"
fill="#000000" stroke="none">
<path d="M1745 3769 c-268 -21 -584 -124 -815 -266 -248 -153 -477 -383 -624
-625 -389 -640 -360 -1443 74 -2060 74 -105 231 -273 335 -358 237 -194 531
-334 818 -389 852 -165 1681 244 2062 1014 180 363 232 785 150 1201 -109 548
-485 1038 -990 1288 -231 115 -452 176 -707 196 -145 11 -156 11 -303 -1z
m371 -114 c297 -37 574 -143 814 -313 123 -86 337 -300 423 -422 37 -52 99
-158 137 -235 111 -223 160 -400 182 -662 10 -120 9 -163 -5 -290 -47 -427
-212 -776 -507 -1073 -320 -323 -731 -502 -1186 -517 -318 -11 -589 48 -869
188 -172 86 -289 172 -445 329 -157 156 -244 274 -330 445 -141 283 -199 551
-187 868 37 1027 954 1808 1973 1682z"/>
<path d="M1468 3043 l-48 -58 0 -95 0 -96 54 -53 c60 -60 79 -60 75 0 -2 26 2
45 13 55 15 15 19 12 47 -45 17 -33 36 -61 41 -61 15 0 13 9 -17 79 l-27 64
27 21 27 22 -40 48 c-22 26 -40 50 -40 53 0 2 14 24 30 48 32 47 37 65 18 65
-7 0 -29 -24 -48 -53 l-35 -52 -3 58 c-2 36 -7 57 -15 57 -7 0 -33 -26 -59
-57z m52 -155 l-1 -153 -34 37 c-34 37 -35 40 -35 119 0 71 3 84 26 115 15 19
30 34 35 34 5 0 9 -69 9 -152z m67 30 c13 -12 23 -27 23 -34 0 -12 -50 -54
-64 -54 -8 0 -8 95 1 103 10 11 15 9 40 -15z"/>
<path d="M3003 3026 c-17 -8 -39 -28 -48 -45 l-16 -31 -473 0 c-371 0 -475 -3
-479 -12 -2 -7 -2 -145 1 -305 l5 -293 -304 0 c-167 0 -310 -4 -318 -9 -11 -7
-12 -76 -7 -407 3 -220 9 -488 12 -596 l6 -198 -231 0 -232 0 2 415 c1 228 5
415 9 415 5 0 4 15 -1 32 -7 24 -6 34 3 37 7 2 25 18 41 34 21 23 27 39 27 76
-1 93 -87 145 -168 102 -31 -16 -62 -65 -62 -98 0 -38 33 -89 69 -108 l30 -15
1 -461 c0 -254 3 -465 6 -470 3 -5 117 -9 255 -9 l249 0 0 -140 c0 -118 2
-142 16 -147 8 -3 19 -2 24 3 5 5 75 204 156 442 81 238 148 431 150 429 2 -2
60 -165 128 -362 l124 -359 -29 -29 c-54 -54 -52 -131 6 -184 28 -27 43 -33
77 -33 83 0 147 71 133 148 -9 48 -63 102 -103 102 -36 0 -34 -4 -71 96 l-29
79 194 275 c107 151 198 275 204 275 10 0 490 -720 490 -736 0 -5 -4 -9 -10
-9 -17 0 -40 -58 -40 -102 0 -50 19 -82 60 -103 82 -42 177 7 187 95 7 72 -30
116 -120 144 -10 3 -29 29 -42 58 -74 164 -54 439 55 738 108 296 130 363 154
472 14 63 25 131 25 149 -1 23 -4 15 -10 -26 -16 -109 -69 -277 -149 -470
-128 -312 -162 -447 -163 -652 0 -62 -1 -113 -3 -113 -1 0 -96 142 -211 315
-119 181 -214 315 -223 315 -11 0 -314 -417 -402 -552 -6 -10 -10 -10 -15 -1
-5 6 -51 135 -103 287 -87 256 -109 302 -131 279 -4 -4 -67 -186 -140 -403
l-134 -395 -6 155 c-4 85 -10 383 -14 663 l-7 507 446 0 c402 0 446 -2 446
-16 0 -9 15 -31 34 -50 28 -28 41 -34 78 -34 24 0 54 7 66 16 29 20 52 66 52
103 0 27 5 31 40 41 44 12 53 34 18 44 -34 9 -50 7 -43 -4 3 -5 -5 -16 -19
-25 -20 -14 -23 -22 -19 -55 5 -35 2 -43 -30 -75 -48 -48 -86 -48 -134 0 -32
32 -35 40 -31 79 5 37 2 45 -13 49 -11 3 -19 12 -19 21 0 20 -30 21 -55 2 -18
-13 -17 -14 11 -29 28 -16 25 -16 -83 -17 l-113 0 0 78 c0 42 -3 168 -7 280
l-6 202 456 0 c443 0 456 -1 462 -20 3 -10 20 -31 36 -45 60 -50 157 -22 179
53 28 93 -68 178 -157 138z m96 -20 c54 -28 66 -97 26 -144 -32 -39 -74 -48
-114 -27 -66 34 -76 112 -19 160 33 28 66 32 107 11z m-2168 -782 c17 -8 37
-30 45 -50 12 -29 12 -39 0 -68 -29 -70 -112 -83 -161 -24 -31 36 -32 76 -4
112 36 46 73 55 120 30z"/>
<path d="M690 2526 c0 -2 8 -10 18 -17 15 -13 16 -12 3 4 -13 16 -21 21 -21
13z"/>
<path d="M2331 2506 c-6 -7 -14 -33 -17 -58 -9 -65 16 -72 53 -15 39 57 56 58
90 5 19 -30 34 -42 46 -40 16 3 17 10 12 45 -13 74 -17 77 -99 77 -50 0 -77
-4 -85 -14z"/>
<path d="M810 2476 c0 -16 18 -31 27 -22 3 3 -2 12 -11 21 -14 14 -16 14 -16
1z"/>
<path d="M1010 2469 c-7 -11 -10 -23 -7 -25 2 -2 9 7 15 21 14 30 7 33 -8 4z"/>
<path d="M1042 2478 c-7 -7 -12 -17 -12 -22 0 -6 5 -3 11 7 6 9 14 15 20 12 5
-4 9 -1 9 4 0 14 -13 14 -28 -1z"/>
<path d="M791 2464 c0 -11 3 -14 6 -6 3 7 2 16 -1 19 -3 4 -6 -2 -5 -13z"/>
<path d="M1133 2473 c9 -2 23 -2 30 0 6 3 -1 5 -18 5 -16 0 -22 -2 -12 -5z"/>
<path d="M1188 2463 c7 -3 16 -2 19 1 4 3 -2 6 -13 5 -11 0 -14 -3 -6 -6z"/>
<path d="M943 2442 c3 -13 -1 -35 -8 -49 -12 -23 -15 -24 -21 -10 -6 17 -7 17
-19 0 -10 -13 -10 -20 -2 -25 8 -5 5 -13 -10 -27 -12 -12 -24 -17 -28 -12 -3
5 0 11 7 13 6 2 12 13 13 24 2 10 6 28 10 38 6 15 5 17 -5 11 -8 -5 -11 -4 -7
2 9 14 -18 47 -31 39 -14 -8 -16 -56 -3 -56 5 0 11 -7 14 -15 5 -11 1 -12 -21
-5 -24 9 -25 8 -10 -3 10 -8 14 -18 10 -22 -4 -5 -1 -5 7 0 10 5 12 3 7 -11
-3 -11 -2 -25 2 -32 7 -9 13 -8 27 8 10 11 23 20 28 20 6 0 8 -3 4 -6 -3 -4 1
-14 10 -22 14 -15 18 -13 39 13 13 17 24 35 23 40 0 6 -3 4 -6 -2 -2 -7 -8
-13 -13 -13 -12 0 -5 33 8 38 14 4 15 41 2 62 -5 8 -10 11 -10 5 0 -5 -5 -3
-11 5 -9 12 -10 10 -6 -8z"/>
<path d="M2406 2453 c-9 -10 -7 -25 3 -18 5 3 12 -3 14 -12 4 -14 5 -13 6 4 1
23 -11 37 -23 26z"/>
<path d="M654 2429 c-3 -6 -1 -16 5 -22 9 -9 10 -7 5 8 -7 18 -6 18 9 6 9 -7
17 -21 18 -30 0 -12 2 -11 9 4 7 18 9 16 15 -12 5 -23 13 -31 26 -30 21 1 27
37 7 37 -10 0 -9 3 1 9 19 12 -2 23 -33 17 -15 -3 -27 1 -30 10 -6 17 -22 18
-32 3z"/>
<path d="M513 2415 c-18 -8 -33 -17 -33 -20 0 -3 9 -1 21 5 11 6 34 12 50 12
20 1 26 4 17 9 -17 11 -17 11 -55 -6z"/>
<path d="M1135 2410 c-4 -6 -11 -8 -16 -5 -5 4 -15 3 -21 -2 -7 -4 -29 -13
-48 -19 -19 -6 -34 -16 -32 -23 1 -7 -2 -10 -8 -6 -5 3 -10 0 -10 -9 0 -8 -5
-16 -11 -18 -6 -2 -8 -15 -3 -33 6 -26 8 -27 15 -10 7 19 8 19 8 0 1 -12 -5
-27 -11 -35 -7 -8 -3 -6 9 4 12 10 21 23 20 30 -1 6 8 10 21 9 12 -2 22 2 22
8 0 5 -4 8 -9 5 -11 -7 -36 22 -27 31 3 3 6 2 6 -4 0 -23 33 -7 43 21 7 22 12
26 16 14 5 -11 11 -7 28 18 12 19 20 34 18 34 -2 0 -7 -5 -10 -10z"/>
<path d="M1180 2401 c0 -7 -4 -10 -8 -7 -5 3 -9 -2 -9 -10 0 -13 2 -13 16 0 8
9 12 19 8 22 -4 4 -7 2 -7 -5z"/>
<path d="M1130 2370 c-6 -11 -8 -20 -6 -20 3 0 10 9 16 20 6 11 8 20 6 20 -3
0 -10 -9 -16 -20z"/>
<path d="M1230 2370 c0 -5 5 -10 10 -10 6 0 10 5 10 10 0 6 -4 10 -10 10 -5 0
-10 -4 -10 -10z"/>
<path d="M1275 2340 c-16 -6 -14 -8 12 -7 18 0 30 4 27 9 -6 10 -12 9 -39 -2z"/>
<path d="M620 2329 c0 -6 9 -8 20 -4 11 4 20 2 20 -4 0 -6 8 -11 17 -11 15 0
14 2 -3 15 -22 17 -54 20 -54 4z"/>
<path d="M750 2321 c13 -25 30 -36 30 -20 0 7 2 10 5 7 3 -3 3 -13 -1 -22 -6
-16 -8 -16 -27 1 -19 18 -20 17 -8 -4 18 -35 28 -35 44 -1 11 22 12 35 5 39
-7 4 -5 9 3 12 8 3 -3 6 -24 6 -34 1 -37 -1 -27 -18z"/>
<path d="M1120 2300 c-8 -5 -11 -13 -6 -17 5 -4 11 -2 13 5 4 10 10 10 28 -2
14 -9 26 -12 30 -6 3 5 -3 14 -14 19 -24 13 -32 13 -51 1z"/>
<path d="M1277 2303 c-4 -3 -7 -15 -7 -26 0 -11 -8 -29 -17 -40 -17 -19 -17
-20 5 -8 12 6 22 17 23 24 0 7 2 22 5 35 4 23 2 27 -9 15z"/>
<path d="M668 2293 c6 -2 18 -2 25 0 6 3 1 5 -13 5 -14 0 -19 -2 -12 -5z"/>
<path d="M1212 2270 c0 -14 2 -19 5 -12 2 6 2 18 0 25 -3 6 -5 1 -5 -13z"/>
<path d="M674 2266 c-15 -11 -22 -12 -33 -3 -12 10 -13 9 -6 -2 6 -11 4 -13
-8 -8 -20 7 -23 -6 -4 -20 19 -16 46 -12 39 5 -3 10 -1 13 6 8 7 -4 12 -2 12
6 0 10 2 10 8 1 5 -8 13 -9 22 -3 11 7 12 10 2 10 -7 0 -10 5 -7 10 9 15 -8
12 -31 -4z"/>
<path d="M1106 2266 c10 -8 21 -12 24 -10 5 6 -21 24 -34 24 -6 0 -1 -6 10
-14z"/>
<path d="M584 2262 c6 -10 1 -11 -21 -7 -27 5 -27 5 -4 -5 14 -6 32 -16 40
-23 14 -11 14 -10 1 7 -8 11 -13 21 -12 23 2 3 0 8 -4 11 -4 4 -4 1 0 -6z"/>
<path d="M1070 2255 c14 -17 13 -18 -5 -11 -20 7 -20 7 0 -12 15 -14 21 -16
23 -5 2 7 7 11 12 8 5 -3 7 -13 4 -23 -5 -14 -4 -15 5 -2 9 13 11 12 11 -5 0
-18 3 -17 28 8 23 23 25 29 12 37 -10 6 -17 4 -23 -6 -7 -13 -14 -12 -45 8
-32 19 -35 20 -22 3z m80 -25 c0 -5 -5 -10 -11 -10 -5 0 -7 5 -4 10 3 6 8 10
11 10 2 0 4 -4 4 -10z"/>
<path d="M493 2234 c1 -1 13 -7 26 -14 19 -10 22 -9 16 1 -6 9 -2 11 13 7 12
-4 20 -2 17 2 -3 4 -21 8 -40 7 -19 -1 -33 -2 -32 -3z"/>
<path d="M705 2230 c-4 -6 -12 -7 -18 -3 -7 4 -5 -2 3 -13 19 -24 32 -34 45
-34 6 1 2 5 -7 11 -10 5 -18 15 -18 20 0 6 5 7 10 4 6 -3 10 1 10 9 0 18 -16
21 -25 6z"/>
<path d="M1027 2233 c-3 -5 -2 -15 4 -23 5 -10 9 -11 9 -3 0 7 7 10 18 6 18
-7 17 -5 -10 15 -9 7 -19 9 -21 5z"/>
<path d="M444 2168 l-19 -21 30 18 c41 26 40 25 23 25 -8 0 -23 -10 -34 -22z"/>
<path d="M590 2174 c-38 -20 -32 -47 15 -61 21 -7 42 -9 45 -5 9 12 50 14 50
3 0 -6 -8 -11 -17 -11 -15 0 -14 -2 3 -15 18 -14 17 -15 -8 -5 -23 8 -26 7
-21 -7 4 -11 3 -14 -6 -9 -13 9 -61 -29 -61 -48 0 -6 -6 -23 -14 -38 -13 -24
-12 -26 2 -21 15 6 15 4 0 -14 -22 -24 -23 -34 -3 -27 8 4 12 10 9 15 -3 5 2
12 11 15 13 5 14 9 4 15 -10 6 -7 11 11 18 22 8 22 10 5 11 l-20 1 20 8 c12 5
23 4 27 -3 6 -8 8 -7 8 2 0 6 6 12 14 12 16 0 19 -46 5 -72 -7 -12 -5 -27 4
-45 8 -16 12 -34 10 -40 -8 -22 2 -14 27 20 20 27 20 29 3 14 -20 -17 -21 -17
-27 0 -4 9 -4 14 0 10 4 -3 20 3 35 14 16 11 29 15 29 9 0 -6 5 -8 10 -5 6 3
10 -1 10 -9 0 -9 4 -16 8 -16 5 0 8 -10 8 -21 -1 -12 6 -24 14 -27 12 -4 13
-2 3 9 -15 15 -17 33 -3 24 6 -4 7 1 3 12 -6 16 -5 17 13 3 18 -14 18 -14 -1
10 -11 14 -22 27 -24 30 -2 3 -1 -4 3 -15 6 -17 4 -17 -18 4 -30 29 -33 41 -8
41 11 0 13 3 6 8 -7 4 -13 16 -15 27 -3 15 -12 19 -37 19 -37 -1 -38 1 -15 24
16 16 16 16 10 0 -8 -23 -1 -23 29 1 l24 19 -38 18 c-37 19 -37 19 -9 22 l27
3 -26 35 c-14 18 -30 31 -36 28 -5 -3 -16 0 -24 7 -8 6 -17 9 -21 6 -3 -4 -11
-3 -17 1 -6 5 -22 3 -36 -4z m58 -12 c9 9 12 9 12 1 0 -22 -23 -26 -37 -8 -11
16 -17 14 -15 -6 1 -3 -6 -6 -14 -6 -11 0 -11 4 3 19 15 17 19 18 28 4 9 -12
14 -13 23 -4z m45 -23 c-8 -8 -13 -7 -18 2 -5 8 -4 10 3 5 7 -4 12 -2 12 5 0
7 3 9 7 6 4 -4 2 -12 -4 -18z m32 -19 c3 -5 1 -10 -4 -10 -6 0 -11 5 -11 10 0
6 2 10 4 10 3 0 8 -4 11 -10z m5 -124 c0 -2 -11 -6 -25 -8 -13 -3 -22 -1 -19
3 5 9 44 13 44 5z m3 -36 c3 -11 1 -18 -4 -14 -5 3 -9 12 -9 20 0 20 7 17 13
-6z"/>
<path d="M1203 2171 c-3 -12 -11 -17 -19 -14 -8 3 -14 0 -14 -6 0 -7 -8 -8
-24 -1 -13 5 -32 6 -43 4 -10 -3 -32 2 -48 10 -16 8 -31 14 -32 12 -3 -3 21
-54 35 -76 5 -8 21 24 16 32 -3 4 -1 8 4 8 6 0 13 -7 16 -16 4 -10 2 -13 -6
-8 -7 5 -8 3 -3 -6 6 -10 12 -7 26 11 17 22 18 22 15 4 -3 -15 2 -21 15 -22
12 -1 17 3 13 9 -4 7 -2 8 5 4 6 -4 25 4 42 18 17 14 25 26 19 26 -7 0 -10 7
-6 15 3 8 3 15 0 15 -3 0 -8 -9 -11 -19z m-145 -36 c-3 -3 -9 2 -12 12 -6 14
-5 15 5 6 7 -7 10 -15 7 -18z"/>
<path d="M1287 2130 c-9 -11 -13 -20 -7 -20 5 0 14 9 20 20 6 11 9 20 8 20 -2
0 -11 -9 -21 -20z"/>
<path d="M538 2118 c-5 -13 1 -17 32 -20 21 -2 36 0 34 4 -3 5 -16 8 -29 8
-13 0 -25 5 -27 12 -3 8 -6 6 -10 -4z"/>
<path d="M538 2083 c6 -2 18 -2 25 0 6 3 1 5 -13 5 -14 0 -19 -2 -12 -5z"/>
<path d="M506 2071 c-3 -4 6 -8 20 -9 13 -1 24 0 24 2 0 7 -40 14 -44 7z"/>
<path d="M1065 2070 c3 -5 8 -10 11 -10 2 0 4 5 4 10 0 6 -5 10 -11 10 -5 0
-7 -4 -4 -10z"/>
<path d="M1059 2042 c7 -13 7 -23 -2 -32 -7 -7 4 -4 24 8 28 17 38 19 49 9 8
-6 6 -2 -4 11 -19 22 -43 32 -31 12 8 -13 -1 -13 -26 1 -18 9 -19 8 -10 -9z"/>
<path d="M1130 2056 c0 -2 7 -9 15 -16 9 -7 15 -8 15 -2 0 5 -7 12 -15 16 -8
3 -15 4 -15 2z"/>
<path d="M1177 2049 c7 -7 15 -10 18 -7 3 3 -2 9 -12 12 -14 6 -15 5 -6 -5z"/>
<path d="M973 2023 c4 -6 0 -16 -10 -22 -10 -6 -13 -11 -5 -11 8 0 10 -8 6
-25 -4 -17 -2 -25 7 -25 11 0 11 -3 -1 -10 -12 -7 -12 -10 -1 -10 7 0 11 -6 8
-14 -8 -19 38 -49 63 -41 11 4 20 11 20 16 0 6 4 8 9 5 4 -3 1 10 -7 29 -9 19
-20 35 -25 35 -14 0 -39 29 -33 39 3 4 -4 17 -16 27 -12 11 -18 14 -15 7z m67
-95 c0 -4 -7 -8 -15 -8 -8 0 -15 4 -15 8 0 5 7 9 15 9 8 0 15 -4 15 -9z m-6
-24 c9 -3 16 -10 16 -16 0 -5 -4 -6 -10 -3 -5 3 -10 1 -10 -5 0 -8 -6 -8 -20
0 -37 20 -17 40 24 24z"/>
<path d="M480 2005 c-7 -8 -8 -15 -2 -15 5 0 15 7 22 15 7 8 8 15 2 15 -5 0
-15 -7 -22 -15z"/>
<path d="M770 2000 c6 -11 12 -20 14 -20 2 0 6 9 9 20 4 15 0 20 -14 20 -17 0
-18 -3 -9 -20z"/>
<path d="M1090 2000 c-13 -9 -13 -10 0 -10 12 0 12 -2 2 -8 -9 -6 -6 -12 12
-20 19 -8 28 -7 43 3 16 13 15 14 -17 9 -26 -4 -31 -3 -20 5 13 10 13 11 0 11
-13 0 -13 1 0 10 8 5 11 10 5 10 -5 0 -17 -5 -25 -10z"/>
<path d="M2004 1975 c21 -7 53 -27 70 -44 l32 -31 20 21 c12 11 43 26 70 34
44 12 46 13 17 14 -18 1 -50 -6 -70 -14 -36 -14 -41 -14 -87 10 -27 14 -59 25
-70 25 -13 -1 -7 -6 18 -15z"/>
<path d="M473 1955 c0 -30 6 -28 12 4 2 11 0 21 -4 21 -5 0 -8 -11 -8 -25z"/>
<path d="M797 1963 c-9 -8 32 -53 47 -53 6 0 -2 11 -19 25 -16 13 -25 24 -19
25 5 0 16 -6 24 -12 12 -11 12 -10 1 5 -14 18 -24 21 -34 10z"/>
<path d="M1279 1923 c-13 -16 -12 -17 4 -4 9 7 17 15 17 17 0 8 -8 3 -21 -13z"/>
<path d="M1110 1901 c5 -11 15 -23 21 -27 6 -3 3 5 -6 20 -20 30 -30 35 -15 7z"/>
<path d="M1225 1900 c-19 -8 -19 -9 2 -9 12 -1 25 4 28 9 7 12 -2 12 -30 0z"/>
<path d="M1150 1880 c6 -11 13 -20 16 -20 2 0 0 9 -6 20 -6 11 -13 20 -16 20
-2 0 0 -9 6 -20z"/>
<path d="M1090 1886 c0 -2 8 -10 18 -17 15 -13 16 -12 3 4 -13 16 -21 21 -21
13z"/>
<path d="M575 1859 c-4 -12 -3 -25 2 -30 6 -6 10 1 11 21 1 35 -4 39 -13 9z"/>
<path d="M710 1850 c-6 -12 -9 -24 -6 -27 3 -4 1 -12 -5 -20 -6 -7 -7 -13 -3
-13 5 0 15 9 22 21 8 12 9 18 3 14 -15 -8 -14 8 1 23 6 6 9 14 6 18 -4 3 -12
-4 -18 -16z"/>
<path d="M962 1815 c0 -16 2 -22 5 -12 2 9 2 23 0 30 -3 6 -5 -1 -5 -18z"/>
<path d="M1942 1814 c-18 -13 -29 -14 -54 -5 -17 6 -38 11 -47 10 -9 0 -2 -5
14 -11 17 -6 37 -16 45 -24 13 -10 20 -8 48 17 35 31 31 39 -6 13z"/>
<path d="M592 1790 c0 -14 2 -19 5 -12 2 6 2 18 0 25 -3 6 -5 1 -5 -13z"/>
<path d="M740 1755 c0 -19 17 -40 48 -59 8 -5 10 -2 6 8 -3 9 -10 16 -15 16
-4 0 -15 12 -23 28 -13 23 -15 24 -16 7z"/>
<path d="M1040 1755 c14 -17 55 -21 45 -5 -4 6 -10 8 -15 5 -5 -3 -11 -1 -15
5 -3 5 -11 10 -17 10 -7 0 -6 -6 2 -15z"/>
<path d="M1096 1756 c3 -9 16 -16 28 -15 14 0 16 2 6 6 -8 3 -21 10 -28 16 -9
7 -11 6 -6 -7z"/>
<path d="M2146 1698 c3 -5 10 -6 15 -3 13 9 11 12 -6 12 -8 0 -12 -4 -9 -9z"/>
</g>
</svg>
